<svg
   viewBox="0 0 256 256"
   >
  <rect
     width="256"
     height="256"
     fill="none"
     id="rect1"
     x="0"
     y="0" />
  <path
     style="baseline-shift:baseline;display:inline;overflow:visible;opacity:1;vector-effect:none;fill:#ffffff;stroke-linecap:round;stroke-linejoin:round;enable-background:accumulate;stop-color:#000000;stop-opacity:1"
     d="m 128,68 c -32.994949,0 -60,27.005051 -60,60 0,32.99495 27.005051,60 60,60 32.99495,0 60,-27.00505 60,-60 0,-32.994949 -27.00505,-60 -60,-60 z m 0,24 c 20.02439,0 36,15.97561 36,36 0,20.02439 -15.97561,36 -36,36 -20.02439,0 -36,-15.97561 -36,-36 0,-20.02439 15.97561,-36 36,-36 z"
     id="circle1" />
  <g
     id="path8"
     style="opacity:1">
    <path
       style="baseline-shift:baseline;display:inline;overflow:visible;vector-effect:none;fill:#ffffff;stroke-linecap:round;stroke-linejoin:round;stroke-miterlimit:0;paint-order:stroke markers fill;enable-background:accumulate;stop-color:#000000;stop-opacity:1"
       d="m 128,22.800781 a 12,12 0 0 0 -12,12 v 11.548828 a 12,12 0 0 0 12,12 12,12 0 0 0 12,-12 V 34.800781 a 12,12 0 0 0 -12,-12 z"
       id="path1" />
    <path
       style="baseline-shift:baseline;display:inline;overflow:visible;vector-effect:none;fill:#ffffff;stroke-linecap:round;stroke-linejoin:round;stroke-miterlimit:0;paint-order:stroke markers fill;enable-background:accumulate;stop-color:#000000;stop-opacity:1"
       d="M 128,46.349998 V 34.799999"
       id="path2" />
  </g>
  <g
     id="use8"
     style="opacity:1">
    <path
       style="baseline-shift:baseline;display:inline;overflow:visible;vector-effect:none;fill:#ffffff;stroke-linecap:round;stroke-linejoin:round;stroke-miterlimit:0;paint-order:stroke markers fill;enable-background:accumulate;stop-color:#000000;stop-opacity:1"
       d="m 128,197.65039 a 12,12 0 0 0 -12,12 v 11.54883 a 12,12 0 0 0 12,12 12,12 0 0 0 12,-12 v -11.54883 a 12,12 0 0 0 -12,-12 z"
       id="path3" />
    <path
       style="baseline-shift:baseline;display:inline;overflow:visible;vector-effect:none;fill:#ffffff;stroke-linecap:round;stroke-linejoin:round;stroke-miterlimit:0;paint-order:stroke markers fill;enable-background:accumulate;stop-color:#000000;stop-opacity:1"
       d="M 128,209.65 V 221.2"
       id="path4" />
  </g>
  <g
     id="use9"
     style="opacity:1">
    <path
       style="baseline-shift:baseline;display:inline;overflow:visible;vector-effect:none;fill:#ffffff;stroke-linecap:round;stroke-linejoin:round;stroke-miterlimit:0;paint-order:stroke markers fill;enable-background:accumulate;stop-color:#000000;stop-opacity:1"
       d="m 34.800781,116 a 12,12 0 0 0 -12,12 12,12 0 0 0 12,12 h 11.548828 a 12,12 0 0 0 12,-12 12,12 0 0 0 -12,-12 z"
       id="path5" />
    <path
       style="baseline-shift:baseline;display:inline;overflow:visible;vector-effect:none;fill:#ffffff;stroke-linecap:round;stroke-linejoin:round;stroke-miterlimit:0;paint-order:stroke markers fill;enable-background:accumulate;stop-color:#000000;stop-opacity:1"
       d="M 46.349998,128 H 34.799999"
       id="path6" />
  </g>
  <g
     id="use10"
     style="opacity:1">
    <path
       style="baseline-shift:baseline;display:inline;overflow:visible;vector-effect:none;fill:#ffffff;stroke-linecap:round;stroke-linejoin:round;stroke-miterlimit:0;paint-order:stroke markers fill;enable-background:accumulate;stop-color:#000000;stop-opacity:1"
       d="m 209.65039,116 a 12,12 0 0 0 -12,12 12,12 0 0 0 12,12 h 11.54883 a 12,12 0 0 0 12,-12 12,12 0 0 0 -12,-12 z"
       id="path7" />
    <path
       style="baseline-shift:baseline;display:inline;overflow:visible;vector-effect:none;fill:#ffffff;stroke-linecap:round;stroke-linejoin:round;stroke-miterlimit:0;paint-order:stroke markers fill;enable-background:accumulate;stop-color:#000000;stop-opacity:1"
       d="M 209.65,128 H 221.2"
       id="path9" />
  </g>
  <g
     id="use11"
     style="opacity:1">
    <path
       style="baseline-shift:baseline;display:inline;overflow:visible;vector-effect:none;fill:#ffffff;stroke-linecap:round;stroke-linejoin:round;stroke-miterlimit:0;paint-order:stroke markers fill;enable-background:accumulate;stop-color:#000000;stop-opacity:1"
       d="m 58.962891,46.962891 a 11.999986,11.999986 0 0 0 -8.484375,3.515625 11.999986,11.999986 0 0 0 0,16.970703 l 8.166015,8.166015 a 11.999986,11.999986 0 0 0 16.970703,0 11.999986,11.999986 0 0 0 0,-16.970703 l -8.166015,-8.166015 a 11.999986,11.999986 0 0 0 -8.486328,-3.515625 z"
       id="path10" />
    <path
       style="baseline-shift:baseline;display:inline;overflow:visible;vector-effect:none;fill:#ffffff;stroke-linecap:round;stroke-linejoin:round;stroke-miterlimit:0;paint-order:stroke markers fill;enable-background:accumulate;stop-color:#000000;stop-opacity:1"
       d="M 67.130109,67.130115 58.963047,58.963031"
       id="path11" />
  </g>
  <g
     id="use12"
     style="opacity:1">
    <path
       style="baseline-shift:baseline;display:inline;overflow:visible;vector-effect:none;fill:#ffffff;stroke-linecap:round;stroke-linejoin:round;stroke-miterlimit:0;paint-order:stroke markers fill;enable-background:accumulate;stop-color:#000000;stop-opacity:1"
       d="m 188.86914,176.86914 a 12,12 0 0 0 -8.48437,3.51563 12,12 0 0 0 0,16.9707 l 8.16601,8.16601 a 12,12 0 0 0 16.9707,0 12,12 0 0 0 0,-16.9707 l -8.16601,-8.16601 a 12,12 0 0 0 -8.48633,-3.51563 z"
       id="path12" />
    <path
       style="baseline-shift:baseline;display:inline;overflow:visible;vector-effect:none;fill:#ffffff;stroke-linecap:round;stroke-linejoin:round;stroke-miterlimit:0;paint-order:stroke markers fill;enable-background:accumulate;stop-color:#000000;stop-opacity:1"
       d="m 188.86988,188.86988 8.16708,8.16709"
       id="path13" />
  </g>
  <g
     id="use13"
     style="opacity:1">
    <path
       style="baseline-shift:baseline;display:inline;overflow:visible;vector-effect:none;fill:#ffffff;stroke-linecap:round;stroke-linejoin:round;stroke-miterlimit:0;paint-order:stroke markers fill;enable-background:accumulate;stop-color:#000000;stop-opacity:1"
       d="m 197.03711,46.962891 a 12,12 0 0 0 -8.48633,3.515625 l -8.16601,8.166015 a 12,12 0 0 0 0,16.970703 12,12 0 0 0 16.9707,0 l 8.16601,-8.166015 a 12,12 0 0 0 0,-16.970703 12,12 0 0 0 -8.48437,-3.515625 z"
       id="path14" />
    <path
       style="baseline-shift:baseline;display:inline;overflow:visible;vector-effect:none;fill:#ffffff;stroke-linecap:round;stroke-linejoin:round;stroke-miterlimit:0;paint-order:stroke markers fill;enable-background:accumulate;stop-color:#000000;stop-opacity:1"
       d="m 188.86992,67.130115 8.16706,-8.167084"
       id="path15" />
  </g>
  <g
     id="use14"
     style="opacity:1">
    <path
       style="baseline-shift:baseline;display:inline;overflow:visible;vector-effect:none;fill:#ffffff;stroke-linecap:round;stroke-linejoin:round;stroke-miterlimit:0;paint-order:stroke markers fill;enable-background:accumulate;stop-color:#000000;stop-opacity:1"
       d="m 67.130859,176.86914 a 12,12 0 0 0 -8.486328,3.51563 l -8.166015,8.16601 a 12,12 0 0 0 0,16.9707 12,12 0 0 0 16.970703,0 l 8.166015,-8.16601 a 12,12 0 0 0 0,-16.9707 12,12 0 0 0 -8.484375,-3.51563 z"
       id="path16" />
    <path
       style="baseline-shift:baseline;display:inline;overflow:visible;vector-effect:none;fill:#ffffff;stroke-linecap:round;stroke-linejoin:round;stroke-miterlimit:0;paint-order:stroke markers fill;enable-background:accumulate;stop-color:#000000;stop-opacity:1"
       d="m 67.13015,188.86988 -8.16708,8.16709"
       id="path17" />
  </g>
</svg>
