<svg
   viewBox="0 0 256 256"
>

  <path
     id="rect1"
     style="fill:none"
     d="M 0,0 H 256 V 256 H 0 Z" />
  <path
     id="circle1"
     style="fill:none;stroke:#ffffff;stroke-width:24;stroke-linecap:round;stroke-linejoin:round"
     d="m 176,128 a 48,48 0 0 1 -48,48 48,48 0 0 1 -48,-48 48,48 0 0 1 48,-48 48,48 0 0 1 48,48 z" />
  <path
     style="opacity:1;fill:#ffffff;stroke:#ffffff;stroke-width:24;stroke-linecap:round;stroke-linejoin:round;stroke-miterlimit:0;stroke-dasharray:none;stroke-opacity:1;paint-order:stroke markers fill"
     d="M 128,46.349998 V 18.799999"
     id="path8" />
  <path
     style="fill:#ffffff;stroke:#ffffff;stroke-width:24;stroke-linecap:round;stroke-linejoin:round;stroke-miterlimit:0;stroke-dasharray:none;stroke-opacity:1;paint-order:stroke markers fill"
     d="M 128,209.65 V 237.2"
     id="use8" />
  <path
     style="fill:#ffffff;stroke:#ffffff;stroke-width:24;stroke-linecap:round;stroke-linejoin:round;stroke-miterlimit:0;stroke-dasharray:none;stroke-opacity:1;paint-order:stroke markers fill"
     d="M 46.349998,128 H 18.799999"
     id="use9" />
  <path
     style="fill:#ffffff;stroke:#ffffff;stroke-width:24;stroke-linecap:round;stroke-linejoin:round;stroke-miterlimit:0;stroke-dasharray:none;stroke-opacity:1;paint-order:stroke markers fill"
     d="M 209.65,128 H 237.2"
     id="use10" />
  <path
     style="fill:#ffffff;stroke:#ffffff;stroke-width:24;stroke-linecap:round;stroke-linejoin:round;stroke-miterlimit:0;stroke-dasharray:none;stroke-opacity:1;paint-order:stroke markers fill"
     d="M 67.130109,67.130115 47.649368,47.64932"
     id="use11" />
  <path
     style="fill:#ffffff;stroke:#ffffff;stroke-width:24;stroke-linecap:round;stroke-linejoin:round;stroke-miterlimit:0;stroke-dasharray:none;stroke-opacity:1;paint-order:stroke markers fill"
     d="m 188.86988,188.86988 19.48079,19.4808"
     id="use12" />
  <path
     style="fill:#ffffff;stroke:#ffffff;stroke-width:24;stroke-linecap:round;stroke-linejoin:round;stroke-miterlimit:0;stroke-dasharray:none;stroke-opacity:1;paint-order:stroke markers fill"
     d="M 188.86992,67.130115 208.35066,47.64932"
     id="use13" />
  <path
     style="fill:#ffffff;stroke:#ffffff;stroke-width:24;stroke-linecap:round;stroke-linejoin:round;stroke-miterlimit:0;stroke-dasharray:none;stroke-opacity:1;paint-order:stroke markers fill"
     d="m 67.13015,188.86988 -19.48079,19.4808"
     id="use14" />
</svg>
