<svg
   viewBox="0 0 256 256"
   >
  <rect
     width="256"
     height="256"
     fill="none"
     id="rect1"
     x="0"
     y="0" />
  <path
     id="circle1"
     style="fill:none;stroke:#ffffff;stroke-width:24;stroke-linecap:round;stroke-linejoin:round"
     d="m 176,128 a 48,48 0 0 1 -48,48 48,48 0 0 1 -48,-48 48,48 0 0 1 48,-48 48,48 0 0 1 48,48 z" />
  <path
     style="opacity:1;fill:#ffffff;stroke:#ffffff;stroke-width:24;stroke-linecap:round;stroke-linejoin:round;stroke-miterlimit:0;stroke-dasharray:none;stroke-opacity:1;paint-order:stroke markers fill"
     d="M 128,46.349998 V 42.799999"
     id="path8" />
  <path
     style="fill:#ffffff;stroke:#ffffff;stroke-width:24;stroke-linecap:round;stroke-linejoin:round;stroke-miterlimit:0;stroke-dasharray:none;stroke-opacity:1;paint-order:stroke markers fill"
     d="m 128,209.65 v 3.55"
     id="use8" />
  <path
     style="fill:#ffffff;stroke:#ffffff;stroke-width:24;stroke-linecap:round;stroke-linejoin:round;stroke-miterlimit:0;stroke-dasharray:none;stroke-opacity:1;paint-order:stroke markers fill"
     d="M 46.349998,128 H 42.799999"
     id="use9" />
  <path
     style="fill:#ffffff;stroke:#ffffff;stroke-width:24;stroke-linecap:round;stroke-linejoin:round;stroke-miterlimit:0;stroke-dasharray:none;stroke-opacity:1;paint-order:stroke markers fill"
     d="m 209.65,128 h 3.55"
     id="use10" />
  <path
     style="fill:#ffffff;stroke:#ffffff;stroke-width:24;stroke-linecap:round;stroke-linejoin:round;stroke-miterlimit:0;stroke-dasharray:none;stroke-opacity:1;paint-order:stroke markers fill"
     d="M 67.130109,67.130115 64.619887,64.619886"
     id="use11" />
  <path
     style="fill:#ffffff;stroke:#ffffff;stroke-width:24;stroke-linecap:round;stroke-linejoin:round;stroke-miterlimit:0;stroke-dasharray:none;stroke-opacity:1;paint-order:stroke markers fill"
     d="m 188.86988,188.86988 2.51023,2.51023"
     id="use12" />
  <path
     style="fill:#ffffff;stroke:#ffffff;stroke-width:24;stroke-linecap:round;stroke-linejoin:round;stroke-miterlimit:0;stroke-dasharray:none;stroke-opacity:1;paint-order:stroke markers fill"
     d="m 188.86992,67.130115 2.51022,-2.510229"
     id="use13" />
  <path
     style="fill:#ffffff;stroke:#ffffff;stroke-width:24;stroke-linecap:round;stroke-linejoin:round;stroke-miterlimit:0;stroke-dasharray:none;stroke-opacity:1;paint-order:stroke markers fill"
     d="m 67.13015,188.86988 -2.51023,2.51023"
     id="use14" />
</svg>
