<?xml version="1.0" encoding="UTF-8" standalone="no"?>
<svg
   viewBox="0 0 256 256"
   version="1.1"
   id="svg2"
   sodipodi:docname="lightbulb-bold.svg"
   inkscape:version="1.4.3 (0d15f75042, 2025-12-25)"
   xmlns:inkscape="http://www.inkscape.org/namespaces/inkscape"
   xmlns:sodipodi="http://sodipodi.sourceforge.net/DTD/sodipodi-0.dtd"
   xmlns:xlink="http://www.w3.org/1999/xlink"
   xmlns="http://www.w3.org/2000/svg"
   xmlns:svg="http://www.w3.org/2000/svg">
  <defs
     id="defs2" />
  <sodipodi:namedview
     id="namedview2"
     pagecolor="#505050"
     bordercolor="#eeeeee"
     borderopacity="1"
     inkscape:showpageshadow="0"
     inkscape:pageopacity="0"
     inkscape:pagecheckerboard="0"
     inkscape:deskcolor="#505050"
     inkscape:zoom="0.66670947"
     inkscape:cx="138.74109"
     inkscape:cy="-206.23676"
     inkscape:window-width="1700"
     inkscape:window-height="982"
     inkscape:window-x="0"
     inkscape:window-y="0"
     inkscape:window-maximized="1"
     inkscape:current-layer="g3" />
  <rect
     width="256"
     height="256"
     fill="none"
     id="rect1" />
  <g
     id="g3"
     transform="translate(0,-8)">
    <line
       x1="100.79392"
       y1="222.00053"
       x2="155.20572"
       y2="222.00053"
       fill="none"
       stroke="currentColor"
       stroke-linecap="round"
       stroke-linejoin="round"
       stroke-width="24"
       id="line1"
       style="stroke:#ffffff;stroke-opacity:1" />
    <path
       d="M 94.468555,167.16505 C 81.363495,156.7826 73.669531,140.88453 73.588031,124.01952 73.424796,94.1108 97.202747,69.216753 126.68713,68.526976 c 23.43478,-0.575671 44.59887,14.134753 52.5248,36.508154 7.92593,22.3734 0.83184,47.37994 -17.60603,62.06094 -4.01796,3.15946 -6.37848,8.01857 -6.40019,13.17474 v 3.37955 c 0,3.04763 -2.4361,5.51822 -5.44118,5.51822 H 106.2351 c -3.00508,0 -5.44118,-2.47059 -5.44118,-5.51822 v -3.37955 c -0.005,-5.12351 -2.338857,-9.95855 -6.325365,-13.10576 z"
       fill="none"
       stroke="currentColor"
       stroke-linecap="round"
       stroke-linejoin="round"
       stroke-width="24"
       id="path1"
       sodipodi:nodetypes="cccsccsssscc"
       style="stroke:#ffffff;stroke-opacity:1;fill:#ffffff;fill-opacity:1" />
    <path
       d="m 136.16159,100.25671 a 24.750562,25.100976 0 0 1 16.32353,20.6933"
       fill="none"
       stroke="currentColor"
       stroke-linecap="round"
       stroke-linejoin="round"
       stroke-width="24"
       id="path2"
       style="stroke:#ffffff;stroke-opacity:1" />
  </g>
  <path
     style="fill:#ffffff;stroke:#ffffff;stroke-width:24;stroke-linecap:round;stroke-linejoin:round;stroke-miterlimit:0;stroke-dasharray:none;stroke-opacity:1;paint-order:stroke markers fill"
     d="M 128,22.752458 V 12.693592"
     id="path8"
     sodipodi:nodetypes="cc" />
  <path
     style="fill:#ffffff;stroke:#ffffff;stroke-width:24;stroke-linecap:round;stroke-linejoin:round;stroke-miterlimit:0;stroke-dasharray:none;stroke-opacity:1;paint-order:stroke markers fill"
     d="M 60.404828,44.511259 53.292154,37.398565"
     id="use11"
     sodipodi:nodetypes="cc" />
  <use
     x="0"
     y="0"
     xlink:href="#use11"
     id="use13"
     transform="matrix(-1,0,0,1,255.99999,0)"
     style="stroke-width:0.874628" />
  <path
     style="fill:#ffffff;stroke:#ffffff;stroke-width:24;stroke-linecap:round;stroke-linejoin:round;stroke-miterlimit:0;stroke-dasharray:none;stroke-opacity:1;paint-order:stroke markers fill"
     d="m 224.04698,104.97977 9.90604,-1.7467"
     id="use3"
     sodipodi:nodetypes="cc" />
  <use
     x="0"
     y="0"
     xlink:href="#use3"
     id="use4"
     transform="matrix(1,0,0,-1,-202,206.21284)" />
</svg>
