<?xml version="1.0" encoding="UTF-8" standalone="no"?>
<svg
   width="32"
   height="32"
   fill="white"
   viewBox="0 0 256 256"
   version="1.1"
   id="svg1"
   sodipodi:docname="wifi-0.svg"
   inkscape:version="1.4.3 (0d15f75042, 2025-12-25)"
   xmlns:inkscape="http://www.inkscape.org/namespaces/inkscape"
   xmlns:sodipodi="http://sodipodi.sourceforge.net/DTD/sodipodi-0.dtd"
   xmlns="http://www.w3.org/2000/svg"
   xmlns:svg="http://www.w3.org/2000/svg">
  <defs
     id="defs1" />
  <sodipodi:namedview
     id="namedview1"
     pagecolor="#505050"
     bordercolor="#eeeeee"
     borderopacity="1"
     inkscape:showpageshadow="0"
     inkscape:pageopacity="0"
     inkscape:pagecheckerboard="0"
     inkscape:deskcolor="#505050"
     inkscape:zoom="27.28125"
     inkscape:cx="16"
     inkscape:cy="16"
     inkscape:window-width="1700"
     inkscape:window-height="982"
     inkscape:window-x="0"
     inkscape:window-y="0"
     inkscape:window-maximized="1"
     inkscape:current-layer="svg1" />
  <path
     d="M 68.3,80.21 C 55.075801,85.854132 42.72465,93.356413 31.62,102.49 26.489271,106.69565 18.920652,105.94572 14.715004,100.815 10.509356,95.684271 11.259271,88.115651 16.39,83.91 27.129569,75.090755 38.878511,67.578146 51.39,61.53 Z m 79.48,87.39 c -17.64588,-6.64904 -37.45236,-3.98112 -52.71,7.1 -5.357166,3.90466 -12.865343,2.72716 -16.769996,-2.63 -3.904653,-5.35717 -2.72717,-12.86534 2.629996,-16.77 12.242154,-8.94084 26.78924,-14.18778 41.92,-15.12 z m -44.27,-48.7 c -14.607424,3.55012 -28.273541,10.21943 -40.06,19.55 -5.20116,3.9749 -12.628304,3.04796 -16.692975,-2.08335 C 42.692355,131.23535 43.490092,123.79322 48.55,119.64 59.688977,110.82808 72.212199,103.92442 85.61,99.21 Z m 89.04,19.55 c 5.20116,3.9749 12.6283,3.04796 16.69297,-2.08335 4.06468,-5.1313 3.26694,-12.57343 -1.79297,-16.72665 -11.23351,-8.92519 -23.89532,-15.88665 -37.45,-20.59 -6.22551,-2.055286 -12.94821,1.26621 -15.09828,7.45961 -2.15007,6.19341 1.06841,12.96603 7.22828,15.21039 11.0087,3.82624 21.29301,9.48227 30.42,16.73 z M 239.61,83.91 C 208.12654,58.126357 168.69403,44.025907 128,44 c -3.94,0 -7.93,0.13 -11.86,0.39 -6.62742,0.439067 -11.64406,6.167583 -11.20499,12.795 0.43906,6.627417 6.16757,11.644067 12.79499,11.205 3.4,-0.23 6.86,-0.34 10.27,-0.34 35.14095,0.0189 69.19331,12.194086 96.38,34.46 5.12244,4.20565 12.68435,3.46244 16.89,-1.66 4.20564,-5.122444 3.46244,-12.684349 -1.66,-16.89 z M 128,188 c -14.25547,0 -21.39205,17.23422 -11.31313,27.31313 C 126.76578,225.39205 144,218.25547 144,204 c 0,-8.83656 -7.16344,-16 -16,-16 z"
     id="path1"
     sodipodi:nodetypes="ccscccccscccccsccccsccscccccscccscc"
     style="fill:#999999;fill-opacity:1" />
  <path
     d="m 216.88,207.93 c 4.55408,4.89203 4.23361,12.56201 -0.71266,17.05711 -4.94628,4.49509 -12.61187,4.08271 -17.04734,-0.91711 l -160,-176 C 34.565921,43.177971 34.886386,35.507985 39.832661,31.012891 44.778936,26.517796 52.444529,26.930183 56.88,31.93 Z"
     id="path1-5"
     sodipodi:nodetypes="csccscc" />
</svg>
